<!-- icon666.com - MILLIONS vector ICONS FREE --><svg version="1.1" id="Capa_1" xmlns="http://www.w3.org/2000/svg" xmlns:xlink="http://www.w3.org/1999/xlink" x="0px" y="0px" viewBox="0 0 495.36 495.36" style="enable-background:new 0 0 495.36 495.36;" xml:space="preserve"><g><g><path d="M247.467,0C110.76,0.118,0,110.973,0,247.68c0.235,136.776,111.117,247.563,247.893,247.68 c136.79-0.118,247.584-111.103,247.467-247.893C495.242,110.677,384.257-0.118,247.467,0z M247.467,474.026 C122.542,473.909,21.333,372.604,21.333,247.68C21.568,122.686,122.9,21.451,247.893,21.333 c125.008,0.118,226.251,101.552,226.133,226.56S372.474,474.144,247.467,474.026z"></path></g></g><g><g><path d="M311.893,208.64v-13.653c-0.118-24.978-20.461-45.131-45.439-45.013c0,0-0.001,0-0.001,0h-82.56v150.613 c0.231,24.977,20.666,45.037,45.643,44.806c0.146-0.001,0.291-0.003,0.437-0.006H265.6c24.971,0.589,45.692-19.176,46.281-44.147 c0.007-0.289,0.011-0.578,0.012-0.866V277.76c-0.029-13.458-6.05-26.204-16.427-34.773 C305.801,234.568,311.827,221.969,311.893,208.64z M290.56,300.587c0.002,13.078-10.598,23.682-23.676,23.684 c-0.143,0-0.287-0.001-0.43-0.004h-36.48c-13.065,0.59-24.134-9.523-24.724-22.588c-0.02-0.435-0.027-0.87-0.023-1.305V253.44 l59.52,0.213c13.28-0.943,24.81,9.059,25.753,22.339c0.042,0.588,0.062,1.178,0.06,1.767V300.587z M290.56,208.64 c0.002,13.078-10.598,23.682-23.676,23.684c-0.143,0-0.287-0.001-0.43-0.004h-61.227v-61.013h59.52 c13.025-1.178,24.539,8.425,25.717,21.45c0.067,0.741,0.099,1.485,0.096,2.23V208.64z"></path></g></g></svg>